<svg width="22" height="22" viewBox="0 0 22 22" fill="none" xmlns="http://www.w3.org/2000/svg">
<path d="M4.5 11H8.5" stroke="black" stroke-linecap="round" stroke-linejoin="round"/>
<path d="M11.5 1.5V21M11.5 21L20.8714 17.2514C21.251 17.0996 21.5 16.7319 21.5 16.323V5.67703C21.5 5.26813 21.251 4.90042 20.8714 4.74856L11.7811 1.11245C11.5978 1.03913 11.3969 1.0217 11.2037 1.06238L6.34207 2.08588M11.5 21L6.34207 19.9141M6.34207 19.9141L2.10189 19.0215C2.03415 19.0072 1.96442 19.003 1.89673 18.9885C1.54591 18.9131 1 18.4479 1 17C1 15.4 1 8 1 4.5C1 3.87929 1.43344 3.11411 1.89675 3.01155C1.96435 2.99659 2.03415 2.99281 2.10189 2.97855L6.34207 2.08588M6.34207 19.9141V2.08588" stroke="black"/>
</svg>
