<svg width="28" height="28" viewBox="0 0 28 28" fill="none" xmlns="http://www.w3.org/2000/svg">
<mask id="mask0_67_15" style="mask-type:alpha" maskUnits="userSpaceOnUse" x="0" y="0" width="28" height="28">
<rect width="28" height="28" fill="#D9D9D9"/>
</mask>
<g mask="url(#mask0_67_15)">
<path d="M24.698 24.3556C24.698 22.0886 23.555 19.9144 21.5204 18.3114C19.4858 16.7084 16.7263 15.8079 13.849 15.8079C10.9717 15.8079 8.21218 16.7084 6.1776 18.3114C4.14302 19.9144 3 22.0886 3 24.3556L3.68705 24.3556C3.68705 22.2321 4.75769 20.1957 6.66342 18.6942C8.56916 17.1927 11.1539 16.3492 13.849 16.3492C16.5441 16.3492 19.1289 17.1927 21.0346 18.6942C22.9403 20.1957 24.011 22.2321 24.011 24.3556H24.698Z" fill="black"/>
<path d="M19.4378 7.58888C19.4378 10.6755 16.9355 13.1778 13.8489 13.1778C10.7622 13.1778 8.26001 10.6755 8.26001 7.58888C8.26001 4.50223 10.7622 2 13.8489 2C16.9355 2 19.4378 4.50223 19.4378 7.58888ZM8.8189 7.58888C8.8189 10.3669 11.0709 12.6189 13.8489 12.6189C16.6269 12.6189 18.8789 10.3669 18.8789 7.58888C18.8789 4.81089 16.6269 2.55889 13.8489 2.55889C11.0709 2.55889 8.8189 4.81089 8.8189 7.58888Z" fill="black"/>
</g>
</svg>
