<svg width="17" height="17" viewBox="0 0 17 17" fill="none" xmlns="http://www.w3.org/2000/svg">
<path d="M15.4487 2.64315H15.0194L14.1509 0.883511C13.8835 0.339388 13.3545 -0.00122634 12.7788 3.31822e-06H4.22061C3.64434 -0.00122634 3.1159 0.339388 2.84793 0.883511L1.98007 2.64315H1.55075C0.694983 2.64438 0.00115254 3.38463 0 4.29765V5.83472C0 6.08926 0.193627 6.29584 0.432203 6.29584C0.67078 6.29584 0.864407 6.08926 0.864407 5.83472V4.29765C0.864983 3.89371 1.17214 3.56601 1.55075 3.56539H14.3267V13.6141C14.3255 14.4319 13.7037 15.0946 12.9373 15.0946H4.06271C3.29685 15.094 2.67563 14.4312 2.67505 13.6141V10.1711C3.41729 10.9513 4.28976 12.0777 5.44576 11.9965H11.5542H14.6743V11.135C14.6743 11.135 11.5341 11.0743 11.5542 11.0743H5.44576C5.01183 11.0755 4.59461 10.8935 4.28515 10.5689L2.67159 8.88242V3.23003C2.67159 2.63058 1.80834 2.62504 1.80719 3.23003V13.6141C1.80719 14.9594 2.84793 16.0439 4.10766 16.0169C4.10824 16.4012 4.02353 16.9803 4.53986 17C5.0562 16.9803 4.97149 16.4005 4.97207 16.0169H12.0314C12.032 16.4012 11.9473 16.9803 12.4636 17C12.9799 16.9803 12.8952 16.4005 12.8958 16.0169C14.1532 16.0403 15.1899 14.9569 15.1899 13.6141V3.56539C15.6625 3.50575 16.1258 3.7357 16.1356 4.29765V5.83472C16.1379 6.43725 16.9977 6.43848 17 5.83472V4.29765C16.9971 3.38463 16.3044 2.64561 15.4487 2.64315ZM2.95685 2.64315L3.61322 1.31328C3.73193 1.07288 3.9659 0.922245 4.22061 0.922245H12.7788C13.0335 0.922245 13.2675 1.07288 13.3862 1.31328L14.0432 2.64315H2.95685Z" fill="black"/>
<path d="M11.3333 13.0333C11.3461 13.7889 12.4542 13.7889 12.4666 13.0333C12.4537 12.2778 11.3456 12.2778 11.3333 13.0333Z" fill="black"/>
<path d="M4.53345 13.0333C4.54633 13.7889 5.65444 13.7889 5.66678 13.0333C5.6539 12.2778 4.54579 12.2778 4.53345 13.0333Z" fill="black"/>
<path d="M7.23856 12.4667C6.65477 12.4697 6.65298 13.597 7.23856 13.6H9.76154C10.3453 13.597 10.3471 12.4697 9.76154 12.4667H7.23856Z" fill="black"/>
</svg>
